<?xml version="1.0" encoding="UTF-8"?>
<svg width="40px" height="40px" viewBox="0 0 40 40" version="1.1" xmlns="http://www.w3.org/2000/svg" xmlns:xlink="http://www.w3.org/1999/xlink">
    <!-- Generator: Sketch 63 (92445) - https://sketch.com -->
    <title>Chevrones</title>
    <desc>Created with Sketch.</desc>
    <g id="Chevrones" stroke="none" stroke-width="1" fill="none" fill-rule="evenodd">
        <path d="M20.1171875,35.5820312 C20.2994792,35.5820312 20.4557292,35.5169271 20.5859375,35.3867188 L20.5859375,35.3867188 L29.7460938,26.2265625 C29.8763021,26.0963542 29.9414062,25.9401042 29.9414062,25.7578125 C29.9414062,25.5755208 29.8763021,25.4192708 29.7460938,25.2890625 C29.6158854,25.1588542 29.4596354,25.09375 29.2773438,25.09375 C29.0950521,25.09375 28.9388021,25.1588542 28.8085938,25.2890625 L28.8085938,25.2890625 L20.1171875,33.9804688 L11.2890625,25.1523438 C11.1588542,25.0351562 11.0026042,24.9765625 10.8203125,24.9765625 C10.6380208,24.9765625 10.4817708,25.0351562 10.3515625,25.1523438 C10.2864583,25.2174479 10.2376302,25.2923177 10.2050781,25.3769531 C10.172526,25.4615885 10.15625,25.5429688 10.15625,25.6210938 C10.15625,25.7122396 10.172526,25.8001302 10.2050781,25.8847656 C10.2376302,25.969401 10.2864583,26.0442708 10.3515625,26.109375 L10.3515625,26.109375 L19.6484375,35.3867188 C19.7786458,35.5169271 19.9348958,35.5820312 20.1171875,35.5820312 Z" id="" fill="#000000" fill-rule="nonzero"></path>
        <path d="M10.8203125,15.5820312 C11.0026042,15.5820312 11.1588542,15.5169271 11.2890625,15.3867188 L20.1171875,6.578125 L28.8085938,15.2695312 C28.9388021,15.3997396 29.0950521,15.4648438 29.2773438,15.4648438 C29.4596354,15.4648438 29.6158854,15.3997396 29.7460938,15.2695312 C29.8763021,15.1393229 29.9414062,14.9830729 29.9414062,14.8007812 C29.9414062,14.6184896 29.8763021,14.4622396 29.7460938,14.3320312 L20.5859375,5.15234375 C20.4557292,5.03515625 20.2994792,4.9765625 20.1171875,4.9765625 C19.9348958,4.9765625 19.7786458,5.03515625 19.6484375,5.15234375 L10.3515625,14.4492188 C10.2864583,14.5143229 10.2376302,14.5891927 10.2050781,14.6738281 C10.172526,14.7584635 10.15625,14.8398438 10.15625,14.9179688 C10.15625,15.0091146 10.172526,15.09375 10.2050781,15.171875 C10.2376302,15.25 10.2864583,15.3216146 10.3515625,15.3867188 C10.4817708,15.5169271 10.6380208,15.5820312 10.8203125,15.5820312 Z" id="" fill="#000000" fill-rule="nonzero"></path>
    </g>
</svg>