<?xml version="1.0" encoding="UTF-8"?>
<svg width="40px" height="40px" viewBox="0 0 40 40" version="1.1" xmlns="http://www.w3.org/2000/svg" xmlns:xlink="http://www.w3.org/1999/xlink">
    <!-- Generator: Sketch 63 (92445) - https://sketch.com -->
    <title>Sad_face</title>
    <desc>Created with Sketch.</desc>
    <g id="Sad_face" stroke="none" stroke-width="1" fill="none" fill-rule="evenodd">
        <path d="M20,38 C22.484375,38 24.8222656,37.53125 27.0136719,36.59375 C29.2050781,35.65625 31.1152344,34.3730469 32.7441406,32.7441406 C34.3730469,31.1152344 35.65625,29.2050781 36.59375,27.0136719 C37.53125,24.8222656 38,22.484375 38,20 C38,17.515625 37.53125,15.1777344 36.59375,12.9863281 C35.65625,10.7949219 34.3730469,8.88476562 32.7441406,7.25585938 C31.1152344,5.62695312 29.2050781,4.34375 27.0136719,3.40625 C24.8222656,2.46875 22.484375,2 20,2 C17.515625,2 15.1777344,2.46875 12.9863281,3.40625 C10.7949219,4.34375 8.88476562,5.62695312 7.25585938,7.25585938 C5.62695312,8.88476562 4.34375,10.7949219 3.40625,12.9863281 C2.46875,15.1777344 2,17.515625 2,20 C2,22.484375 2.46875,24.8222656 3.40625,27.0136719 C4.34375,29.2050781 5.62695312,31.1152344 7.25585938,32.7441406 C8.88476562,34.3730469 10.7949219,35.65625 12.9863281,36.59375 C15.1777344,37.53125 17.515625,38 20,38 Z M20,36 C17.7857143,36 15.7083333,35.577381 13.7678571,34.7321429 C11.827381,33.8869048 10.1369048,32.7440476 8.69642857,31.3035714 C7.25595238,29.8630952 6.11309524,28.172619 5.26785714,26.2321429 C4.42261905,24.2916667 4,22.2142857 4,20 C4,17.7857143 4.42261905,15.7083333 5.26785714,13.7678571 C6.11309524,11.827381 7.25595238,10.1369048 8.69642857,8.69642857 C10.1369048,7.25595238 11.827381,6.11309524 13.7678571,5.26785714 C15.7083333,4.42261905 17.7857143,4 20,4 C22.2142857,4 24.2916667,4.42261905 26.2321429,5.26785714 C28.172619,6.11309524 29.8630952,7.25595238 31.3035714,8.69642857 C32.7440476,10.1369048 33.8869048,11.827381 34.7321429,13.7678571 C35.577381,15.7083333 36,17.7857143 36,20 C36,22.2142857 35.577381,24.2916667 34.7321429,26.2321429 C33.8869048,28.172619 32.7440476,29.8630952 31.3035714,31.3035714 C29.8630952,32.7440476 28.172619,33.8869048 26.2321429,34.7321429 C24.2916667,35.577381 22.2142857,36 20,36 Z M14.015748,19 C14.5616798,19 15.0288714,18.7526042 15.4173228,18.2578125 C15.8057743,17.7630208 16,17.1770833 16,16.5 C16,15.8229167 15.8057743,15.2369792 15.4173228,14.7421875 C15.0288714,14.2473958 14.5616798,14 14.015748,14 C13.4488189,14 12.9711286,14.2473958 12.5826772,14.7421875 C12.1942257,15.2369792 12,15.8229167 12,16.5 C12,17.1770833 12.1942257,17.7630208 12.5826772,18.2578125 C12.9711286,18.7526042 13.4488189,19 14.015748,19 Z M26.015748,19 C26.5616798,19 27.0288714,18.7526042 27.4173228,18.2578125 C27.8057743,17.7630208 28,17.1770833 28,16.5 C28,15.8229167 27.8057743,15.2369792 27.4173228,14.7421875 C27.0288714,14.2473958 26.5616798,14 26.015748,14 C25.4488189,14 24.9711286,14.2473958 24.5826772,14.7421875 C24.1942257,15.2369792 24,15.8229167 24,16.5 C24,17.1770833 24.1942257,17.7630208 24.5826772,18.2578125 C24.9711286,18.7526042 25.4488189,19 26.015748,19 Z M20.1877122,23 C20.1646322,23 20.1415522,23.0058064 20.1184722,23.0174192 C20.0953922,23.029032 20.0723123,23.0348384 20.0492323,23.0348384 C18.272074,23.0348384 16.7603354,23.3599969 15.5140166,24.010314 C14.2676978,24.6606311 13.2464087,25.3748185 12.4501495,26.1528765 C11.6538903,26.9309344 11.0711208,27.6567347 10.7018412,28.3302773 C10.3325615,29.00382 10.1363817,29.3754298 10.1133017,29.4451066 C9.97482184,29.7238139 9.96328185,30.0025212 10.0786817,30.2812285 C10.1940816,30.5599358 10.3902614,30.7689663 10.6672212,30.90832 C10.9441809,31.024448 11.2269107,31.0302544 11.5154104,30.9257392 C11.8039101,30.8212239 12.0058599,30.6296127 12.1212598,30.3509053 C12.1212598,30.3276797 12.2712797,30.0547788 12.5713194,29.5322026 C12.8713591,29.0096264 13.3387287,28.4347926 13.9734281,27.8077011 C14.6081274,27.1806097 15.4274667,26.5999694 16.4314457,26.0657804 C17.4354248,25.5315914 18.6413536,25.2644969 20.0492323,25.2644969 C20.0723123,25.2644969 20.0953922,25.2586905 20.1184722,25.2470777 C20.1415522,25.2354649 20.1530922,25.2296585 20.1530922,25.2296585 C21.4917309,25.2296585 22.6399598,25.4909466 23.5977789,26.0135228 C24.555598,26.536099 25.3460873,27.1051264 25.9692467,27.7206051 C26.5924061,28.3360837 27.0597756,28.916724 27.3713553,29.4625258 C27.6829351,30.0083276 27.8502649,30.3044541 27.8733449,30.3509053 C28.0118247,30.6296127 28.2195445,30.8212239 28.4965043,30.9257392 C28.773464,31.0302544 29.0504238,31.024448 29.3273835,30.90832 C29.6274232,30.7689663 29.829373,30.5599358 29.9332329,30.2812285 C30.0370928,30.0025212 30.0197828,29.7122011 29.881303,29.4102682 C29.858223,29.3638169 29.6562732,28.9980136 29.2754535,28.3128581 C28.8946339,27.6277027 28.3118645,26.896096 27.5271452,26.118038 C26.7424259,25.3399801 25.7442169,24.6257927 24.532518,23.9754756 C23.3208192,23.3251585 21.8725506,23 20.1877122,23 Z" id="" fill="#2036A3" fill-rule="nonzero"></path>
    </g>
</svg>